# xmcd CD database file
#
# Track frame offsets:
#	151
#	10041
#	25103
#	37502
#	48449
#	60983
#	74164
#	92671
#	107602
#	129599
#	153061
#	167471
#	188413
#
# Disc length: 2728 seconds
#
# Revision: 0
# Processed by: cddbd v1.5.2PL0 Copyright (c) Steve Scherf et al.
# Submitted via: CDex 1.51
#
DISCID=8d0aa60d
DTITLE=Ingrid Lucia - Don't Stop
DYEAR=2007
DGENRE=Jazz
TTITLE0=A Place in the Sun
TTITLE1=New Orleans
TTITLE2=Mind Your Own Business
TTITLE3=If I Could Be With You (One Hour Tonight)
TTITLE4=There'll Be Some Changes Made
TTITLE5=Hometown Blues
TTITLE6=Big Long Slidin' Thing
TTITLE7=Margie
TTITLE8=Getting Some Fun Out of Life
TTITLE9=Do You Know What it Means to Miss New Orleans?
TTITLE10=Down Home
TTITLE11=Why Don't You Go Down to New Orleans?
TTITLE12=It's a Long Lonely Highway
EXTD=YEAR: 2007
EXTT0=
EXTT1=
EXTT2=
EXTT3=
EXTT4=
EXTT5=
EXTT6=
EXTT7=
EXTT8=
EXTT9=
EXTT10=
EXTT11=
EXTT12=
PLAYORDER=
